<svg width="15" height="16" viewBox="0 0 15 16" fill="none" xmlns="http://www.w3.org/2000/svg">
<path fill-rule="evenodd" clip-rule="evenodd" d="M7.49998 0.833374C7.63259 0.833374 7.75976 0.886052 7.85353 0.979821C7.9473 1.07359 7.99998 1.20077 7.99998 1.33337V8.64871L9.11998 7.34137C9.1627 7.29147 9.21484 7.25047 9.2734 7.22072C9.33197 7.19096 9.39583 7.17304 9.46132 7.16796C9.52682 7.16288 9.59267 7.17076 9.65513 7.19113C9.71758 7.21151 9.77541 7.24398 9.82531 7.28671C9.87521 7.32943 9.91621 7.38156 9.94597 7.44013C9.97572 7.4987 9.99365 7.56256 9.99872 7.62805C10.0038 7.69355 9.99593 7.7594 9.97555 7.82186C9.95518 7.88431 9.9227 7.94214 9.87998 7.99204L7.87998 10.3254C7.83304 10.3803 7.77477 10.4243 7.70917 10.4545C7.64357 10.4848 7.5722 10.5004 7.49998 10.5004C7.42776 10.5004 7.35639 10.4848 7.29079 10.4545C7.22519 10.4243 7.16692 10.3803 7.11998 10.3254L5.11998 7.99204C5.07726 7.94214 5.04478 7.88431 5.02441 7.82186C5.00403 7.7594 4.99616 7.69355 5.00123 7.62805C5.00631 7.56256 5.02424 7.4987 5.05399 7.44013C5.08375 7.38156 5.12474 7.32943 5.17465 7.28671C5.22455 7.24398 5.28238 7.21151 5.34483 7.19113C5.40728 7.17076 5.47314 7.16288 5.53863 7.16796C5.60413 7.17304 5.66799 7.19096 5.72655 7.22072C5.78512 7.25047 5.83726 7.29147 5.87998 7.34137L6.99998 8.64804V1.33337C6.99998 1.20077 7.05266 1.07359 7.14643 0.979821C7.24019 0.886052 7.36737 0.833374 7.49998 0.833374ZM4.16398 5.50137C4.29659 5.50067 4.42405 5.55267 4.51831 5.64593C4.61258 5.7392 4.66594 5.8661 4.66665 5.99871C4.66735 6.13132 4.61535 6.25877 4.52208 6.35304C4.42882 6.44731 4.30192 6.50067 4.16931 6.50137C3.44065 6.50537 2.92398 6.52404 2.53131 6.59604C2.15398 6.66604 1.93465 6.77737 1.77265 6.93937C1.58798 7.12404 1.46798 7.38337 1.40198 7.87271C1.33465 8.37604 1.33331 9.04337 1.33331 10V10.6667C1.33331 11.624 1.33465 12.2914 1.40198 12.7947C1.46798 13.284 1.58865 13.5427 1.77265 13.728C1.95731 13.912 2.21598 14.032 2.70598 14.098C3.20865 14.166 3.87665 14.1667 4.83331 14.1667H10.1666C11.1233 14.1667 11.7906 14.166 12.2946 14.098C12.784 14.032 13.0426 13.912 13.2273 13.7274C13.412 13.5427 13.532 13.284 13.598 12.7947C13.6653 12.2914 13.6666 11.624 13.6666 10.6667V10C13.6666 9.04337 13.6653 8.37604 13.598 7.87204C13.532 7.38337 13.4113 7.12404 13.2273 6.93937C13.0646 6.77737 12.846 6.66604 12.4686 6.59604C12.076 6.52404 11.5593 6.50537 10.8306 6.50137C10.765 6.50102 10.7 6.48774 10.6395 6.46229C10.579 6.43684 10.5241 6.39972 10.4779 6.35304C10.4317 6.30636 10.3952 6.25105 10.3704 6.19025C10.3455 6.12946 10.333 6.06437 10.3333 5.99871C10.3337 5.93305 10.3469 5.8681 10.3724 5.80757C10.3978 5.74704 10.435 5.69212 10.4816 5.64593C10.5283 5.59975 10.5836 5.56322 10.6444 5.53841C10.7052 5.51361 10.7703 5.50102 10.836 5.50137C11.5573 5.50537 12.158 5.52271 12.6493 5.61271C13.1546 5.70604 13.5846 5.88271 13.9346 6.23271C14.336 6.63337 14.508 7.13937 14.5893 7.73937C14.6666 8.31671 14.6666 9.05204 14.6666 9.96337V10.7034C14.6666 11.6154 14.6666 12.35 14.5893 12.928C14.508 13.528 14.336 14.0334 13.9346 14.4347C13.5333 14.836 13.028 15.008 12.428 15.0894C11.85 15.1667 11.1146 15.1667 10.2033 15.1667H4.79665C3.88531 15.1667 3.14998 15.1667 2.57198 15.0894C1.97198 15.0087 1.46665 14.836 1.06531 14.4347C0.66398 14.0334 0.49198 13.528 0.411313 12.928C0.333313 12.35 0.333313 11.6147 0.333313 10.7034V9.96337C0.333313 9.05204 0.333313 8.31671 0.411313 7.73871C0.491313 7.13871 0.664646 6.63337 1.06531 6.23204C1.41531 5.88271 1.84531 5.70537 2.35065 5.61271C2.84198 5.52271 3.44265 5.50537 4.16398 5.50137Z" fill="white"/>
</svg>
