<svg width="24" height="24" viewBox="0 0 24 24" fill="none" xmlns="http://www.w3.org/2000/svg">
<path d="M14.4 15.1199V13.2546C14.4 12.9205 14.5725 12.6147 14.8246 12.3955C15.7364 11.6032 16.32 10.4171 16.32 9.11992C16.32 8.87992 16.32 6.47992 16.32 6.23992C16.32 3.83992 14.4 1.91992 12 1.91992C9.6 1.91992 7.68 3.83992 7.68 6.23992C7.68 6.47992 7.68 8.87992 7.68 9.11992C7.68 10.4171 8.26363 11.6032 9.17537 12.3955C9.42754 12.6147 9.6 12.9205 9.6 13.2546V15.1199C9.6 16.6736 3.85224 16.8321 2.98819 20.6056C2.86492 21.1439 3.32772 21.5999 3.88 21.5999H20.12C20.6723 21.5999 21.135 21.144 21.0137 20.6052C20.1562 16.7973 14.4 16.7199 14.4 15.1199Z" stroke="#7878FA" stroke-width="2" stroke-miterlimit="10" stroke-linecap="round"/>
</svg>
